<svg width="18" height="19" viewBox="0 0 18 19" fill="none" xmlns="http://www.w3.org/2000/svg">
<path d="M7.35733 0.5H10.6427C11.7267 0.5 12.6013 0.5 13.3093 0.557334C14.0373 0.617334 14.6773 0.744 15.2693 1.04533C16.2108 1.5245 16.9763 2.28952 17.456 3.23067C17.7573 3.82267 17.8827 4.46267 17.9427 5.19067C18 5.89867 18 6.77333 18 7.85733V11.1427C18 12.2267 18 13.1013 17.9427 13.8093C17.8827 14.5373 17.756 15.1773 17.4547 15.7693C16.9755 16.7108 16.2105 17.4763 15.2693 17.956C14.6773 18.2573 14.0373 18.3827 13.3093 18.4427C12.6013 18.5 11.7267 18.5 10.6427 18.5H5.82933C3.156 18.5 1.816 15.268 3.70667 13.3787L9.58667 7.5H7.5C7.23478 7.5 6.98043 7.39464 6.79289 7.20711C6.60536 7.01957 6.5 6.76522 6.5 6.5C6.5 6.23478 6.60536 5.98043 6.79289 5.79289C6.98043 5.60536 7.23478 5.5 7.5 5.5H12C12.2652 5.5 12.5196 5.60536 12.7071 5.79289C12.8946 5.98043 13 6.23478 13 6.5V11C13 11.2652 12.8946 11.5196 12.7071 11.7071C12.5196 11.8946 12.2652 12 12 12C11.7348 12 11.4804 11.8946 11.2929 11.7071C11.1054 11.5196 11 11.2652 11 11V8.91467L5.12133 14.7933C4.98166 14.9332 4.88656 15.1113 4.84805 15.3052C4.80953 15.499 4.82934 15.6999 4.90495 15.8826C4.98057 16.0652 5.1086 16.2213 5.27289 16.3312C5.43718 16.4411 5.63035 16.4998 5.828 16.5H10.6C11.7373 16.5 12.5293 16.5 13.1467 16.4493C13.7507 16.3987 14.0987 16.3067 14.3627 16.1733C14.9267 15.8853 15.3853 15.4267 15.6733 14.8627C15.8067 14.5987 15.9 14.2507 15.9493 13.6453C15.9987 13.0293 16 12.2373 16 11.1V7.9C16 6.764 16 5.97067 15.9493 5.35333C15.8987 4.74933 15.8067 4.40133 15.6733 4.13867C15.386 3.57388 14.9272 3.1146 14.3627 2.82667C14.0987 2.69333 13.7507 2.6 13.1453 2.55067C12.5293 2.50133 11.7373 2.5 10.6 2.5H7.4C6.264 2.5 5.47067 2.5 4.85333 2.55067C4.24933 2.6 3.90133 2.69333 3.63867 2.82667C3.07368 3.11437 2.61437 3.57368 2.32667 4.13867C2.19333 4.40133 2.1 4.74933 2.05067 5.35467C2.00133 5.97067 2 6.764 2 7.9V11.5C2 11.7652 1.89464 12.0196 1.70711 12.2071C1.51957 12.3946 1.26522 12.5 1 12.5C0.734784 12.5 0.480429 12.3946 0.292893 12.2071C0.105357 12.0196 0 11.7652 0 11.5V7.85733C0 6.77333 2.93056e-07 5.89867 0.0573336 5.19067C0.117334 4.46267 0.244 3.82267 0.545333 3.23067C1.0245 2.28923 1.78952 1.52374 2.73067 1.044C3.32267 0.742667 3.96267 0.617334 4.69067 0.557334C5.39867 0.5 6.27333 0.5 7.35733 0.5Z" fill="#464646"/>
</svg>
