<svg width="40" height="40" viewBox="0 0 40 40" fill="none" xmlns="http://www.w3.org/2000/svg">
<path d="M29.791 38.969C34.032 34.7596 34.3188 29.366 34.8403 26.1375C35.7383 20.5701 29.791 18.2842 23.2121 16.9881L24.0551 4.54832C24.0954 3.68476 23.8066 2.83867 23.2489 2.18616C22.6912 1.53366 21.9074 1.12502 21.0608 1.04531C20.2143 0.965606 19.3701 1.22097 18.704 1.75825C18.0379 2.29552 17.6013 3.07332 17.485 3.92972L16.1118 15.6654L13.0904 4.50708C12.8265 3.55491 12.2123 2.74256 11.3752 2.23853C10.5381 1.73449 9.5423 1.57744 8.59438 1.79997C8.13491 1.90861 7.70174 2.11045 7.32081 2.39338C6.93988 2.67631 6.61903 3.03452 6.37748 3.44654C6.13593 3.85857 5.97866 4.31593 5.91507 4.79123C5.85149 5.26653 5.88291 5.74999 6.00745 6.21265L10.2079 22.2373" stroke="#464646" stroke-width="2" stroke-linecap="round" stroke-linejoin="round"/>
<path d="M11.4681 38.969C5.74672 36.6478 4.84868 30.7504 5.1094 26.6353C5.27452 24.046 7.58624 22.2432 10.1384 22.2432H19.3824C20.122 22.2434 20.8358 22.5194 21.3887 23.0189C21.9416 23.5185 22.295 24.2069 22.3821 24.9537C22.4693 25.7005 22.284 26.4539 21.8614 27.0711C21.4388 27.6883 20.8083 28.1265 20.0892 28.3026L14.8546 29.581C16.5058 29.3041 20.2718 30.9949 20.4079 34.6889" stroke="#464646" stroke-width="2" stroke-linecap="round" stroke-linejoin="round"/>
</svg>
